<svg viewBox="0 0 43 43" fill="none" xmlns="http://www.w3.org/2000/svg">
<path d="M12.5417 34.0415V30.4582H25.2625C27.1438 30.4582 28.7787 29.8609 30.1672 28.6665C31.5557 27.4721 32.25 25.979 32.25 24.1873C32.25 22.3957 31.5557 20.9026 30.1672 19.7082C28.7787 18.5137 27.1438 17.9165 25.2625 17.9165H13.975L18.6334 22.5748L16.125 25.0832L7.16669 16.1248L16.125 7.1665L18.6334 9.67484L13.975 14.3332H25.2625C28.159 14.3332 30.645 15.2738 32.7203 17.155C34.7957 19.0363 35.8334 21.3804 35.8334 24.1873C35.8334 26.9943 34.7957 29.3384 32.7203 31.2196C30.645 33.1009 28.159 34.0415 25.2625 34.0415H12.5417Z" fill="#2B3594"/>
</svg>
